<svg xmlns="http://www.w3.org/2000/svg" width="1000" height="1080" viewBox="0 0 1000 1080" version="1.1"><path d="M 210.492 74.016 C 191.138 75.635, 172.077 81.222, 154.198 90.519 C 139.951 97.928, 129.329 105.759, 117.544 117.544 C 91.262 143.827, 76.900 175.424, 73.928 213.500 C 73.264 222.013, 73.030 324.524, 73.251 510.500 C 73.588 794.500, 73.588 794.500, 75.786 804.500 C 82.799 836.413, 96.308 861.566, 117.946 883 C 143.130 907.945, 173.812 922.282, 209.856 925.947 C 223.214 927.305, 776.175 927.369, 790.098 926.014 C 826.073 922.513, 857.136 907.892, 882.514 882.514 C 907.786 857.242, 922.658 825.749, 925.966 790.500 C 927.334 775.922, 927.366 228.295, 925.999 211.808 C 922.970 175.246, 908.214 143.302, 882.456 117.544 C 865.313 100.401, 846.330 88.680, 823.453 81.113 C 798.375 72.818, 828.122 73.541, 506 73.394 C 348.425 73.322, 215.446 73.602, 210.492 74.016 M 311.500 296.203 C 268.207 298.971, 227.621 325.711, 207.120 364.972 C 201.598 375.549, 199.100 381.860, 196.027 393 C 193.562 401.940, 168.177 602.736, 167.331 620 C 166.857 629.661, 167.111 632.939, 168.921 640.500 C 175.714 668.867, 195.993 690.810, 224.500 700.639 C 231.979 703.218, 233.606 703.400, 249.500 703.443 C 266.002 703.487, 266.752 703.399, 275.096 700.417 C 279.824 698.727, 286.574 695.724, 290.096 693.743 C 304.093 685.872, 306.806 682.798, 359.676 614.891 C 387.273 579.445, 410.689 549.686, 411.713 548.760 C 417.056 543.924, 415.654 544, 500 544 C 584.346 544, 582.944 543.924, 588.287 548.760 C 589.311 549.686, 612.727 579.445, 640.324 614.891 C 693.194 682.798, 695.907 685.872, 709.904 693.743 C 713.426 695.724, 720.176 698.723, 724.904 700.408 C 733.163 703.351, 734.147 703.471, 750 703.485 C 768.458 703.502, 774.256 702.273, 787.627 695.514 C 807.529 685.454, 821.359 669.417, 828.751 647.827 C 834.286 631.662, 834.209 626.848, 827.560 573 C 806.402 401.641, 805.886 397.931, 801.285 384.040 C 797.958 373.997, 789.176 357.148, 782.760 348.500 C 763.049 321.929, 732.666 303.137, 700.290 297.491 C 689.105 295.541, 666.745 295.568, 655.381 297.546 C 644.911 299.368, 628.725 304.608, 619.829 309.056 C 604.217 316.860, 585.896 331.673, 576.018 344.477 C 571.757 350, 571.757 350, 500 350 C 428.243 350, 428.243 350, 423.982 344.477 C 417.664 336.287, 404.117 323.865, 394.752 317.675 C 369.515 300.991, 343.113 294.182, 311.500 296.203 M 309.500 372.945 C 308.400 373.396, 306.600 374.763, 305.500 375.985 C 303.674 378.012, 303.500 379.613, 303.500 394.353 C 303.500 410.500, 303.500 410.500, 286.666 411 C 269.831 411.500, 269.831 411.500, 266.916 414.766 C 264.023 418.006, 264 418.130, 264 430.593 C 264 443.143, 264.003 443.156, 266.923 446.077 C 269.846 449, 269.846 449, 286.423 449 C 303 449, 303 449, 303.055 452.250 C 303.086 454.038, 303.063 460.748, 303.005 467.162 C 302.891 479.744, 304.167 484.949, 307.850 486.920 C 308.998 487.534, 315.462 488, 322.845 488 C 335.822 488, 335.822 488, 338.411 484.923 C 340.966 481.887, 341 481.633, 341 465.423 C 341 449, 341 449, 357.066 449 C 373.233 449, 376.113 448.479, 378.718 445.087 C 380.284 443.047, 380.451 418.712, 378.920 415.850 C 376.853 411.988, 372.340 411.087, 356.152 411.300 C 341 411.500, 341 411.500, 341 395.815 C 341 387.188, 340.553 378.954, 340.006 377.517 C 338.459 373.448, 333.590 371.991, 321.782 372.063 C 316.127 372.098, 310.600 372.495, 309.500 372.945 M 721.734 400.033 C 709.043 403.208, 700.269 413.534, 699.268 426.471 C 698.405 437.621, 704.092 447.965, 714.144 453.534 C 718.903 456.169, 720.447 456.500, 728 456.500 C 735.553 456.500, 737.097 456.169, 741.856 453.534 C 758.260 444.448, 761.958 423.068, 749.520 409.233 C 742.500 401.426, 731.167 397.673, 721.734 400.033 M 0 1040.003 C 0 1080.002, 0 1080.002, 500.250 1079.751 C 1000.500 1079.500, 1000.500 1079.500, 1000.761 1039.500 C 1001.022 999.500, 1001.022 999.500, 500.511 999.752 C 0 1000.004, 0 1000.004, 0 1040.003 M 0.456 1040 C 0.456 1062.275, 0.588 1071.388, 0.749 1060.250 C 0.910 1049.112, 0.910 1030.888, 0.749 1019.750 C 0.588 1008.612, 0.456 1017.725, 0.456 1040 M 34.515 1040.487 C 36.982 1047.441, 39 1053.326, 39 1053.565 C 39 1053.804, 39.631 1054, 40.402 1054 C 41.837 1054, 42.145 1053.322, 46.985 1039.500 C 48.526 1035.100, 50.108 1030.713, 50.500 1029.750 C 50.893 1028.787, 50.799 1028, 50.292 1028 C 49.785 1028, 48.318 1031.037, 47.032 1034.750 C 40.239 1054.361, 41.198 1053.838, 36.482 1040.507 C 34.163 1033.952, 31.763 1028.421, 31.148 1028.216 C 30.533 1028.011, 32.048 1033.533, 34.515 1040.487 M 86.879 1028.500 C 86.070 1029.802, 86.480 1047.856, 87.382 1050.658 C 87.764 1051.844, 88.798 1053.092, 89.681 1053.431 C 92.190 1054.394, 92.366 1053.366, 90.083 1051.083 C 88.400 1049.400, 88 1047.753, 88 1042.500 C 88 1036.667, 88.205 1036, 90 1036 C 91.100 1036, 92 1035.550, 92 1035 C 92 1034.450, 91.129 1034, 90.063 1034 C 88.609 1034, 88.049 1033.190, 87.813 1030.750 C 87.641 1028.963, 87.221 1027.950, 86.879 1028.500 M 128.635 1030.073 C 125.801 1032.302, 125.239 1035.620, 127.250 1038.257 C 127.938 1039.159, 131.113 1040.862, 134.307 1042.042 C 139.559 1043.981, 140.085 1044.439, 139.807 1046.825 C 139.397 1050.343, 135.397 1051.786, 130.027 1050.353 C 126.948 1049.531, 125.988 1049.589, 125.592 1050.620 C 124.905 1052.411, 126.125 1053.002, 131.726 1053.590 C 137.335 1054.179, 140.935 1052.620, 142.760 1048.813 C 144.935 1044.278, 143.011 1041.476, 135.956 1038.904 C 129.471 1036.539, 127.982 1034.932, 130.011 1032.487 C 131.598 1030.575, 135.308 1030.591, 139.050 1032.526 C 141.824 1033.960, 142 1033.936, 142 1032.124 C 142 1030.860, 140.914 1029.817, 138.851 1029.098 C 134.241 1027.491, 131.596 1027.743, 128.635 1030.073 M 147 1039 C 147 1048.667, 147.242 1050.242, 149 1052 C 150.100 1053.100, 151.637 1054, 152.417 1054 C 154.721 1054, 154.833 1051.601, 152.581 1050.483 C 150.864 1049.630, 150.448 1048.362, 150.202 1043.225 C 149.911 1037.143, 149.963 1037, 152.452 1037 C 154.050 1037, 155 1036.441, 155 1035.500 C 155 1034.567, 154.056 1034, 152.500 1034 C 150.389 1034, 150 1033.533, 150 1031 C 150 1029, 149.500 1028, 148.500 1028 C 147.258 1028, 147 1029.889, 147 1039 M 194 1041 C 194 1051.659, 194.260 1054, 195.443 1054 C 196.420 1054, 196.984 1052.654, 197.193 1049.828 C 197.362 1047.533, 198.009 1045.488, 198.631 1045.284 C 199.252 1045.080, 201.052 1046.957, 202.631 1049.455 C 204.666 1052.676, 206.163 1053.997, 207.782 1053.998 C 209.943 1054, 209.851 1053.712, 206.032 1048.543 C 203.814 1045.541, 202 1042.748, 202 1042.335 C 202 1041.922, 203.666 1039.878, 205.703 1037.792 C 208.860 1034.559, 209.110 1034, 207.399 1034 C 206.295 1034, 203.866 1035.575, 202 1037.500 C 200.134 1039.425, 198.246 1041, 197.804 1041 C 197.362 1041, 197 1038.075, 197 1034.500 C 197 1029.389, 196.679 1028, 195.500 1028 C 194.244 1028, 194 1030.111, 194 1041 M 214.079 1031.177 C 214.122 1033.005, 214.391 1033.919, 214.676 1033.208 C 215.030 1032.326, 215.575 1032.232, 216.393 1032.911 C 217.275 1033.643, 217.580 1033.196, 217.546 1031.217 C 217.516 1029.474, 216.884 1028.409, 215.750 1028.190 C 214.355 1027.922, 214.016 1028.528, 214.079 1031.177 M 52.923 1036.923 C 50.631 1039.216, 50 1040.742, 50 1044 C 50 1047.258, 50.631 1048.784, 52.923 1051.077 C 55.806 1053.960, 58.341 1054.551, 62.750 1053.370 C 66.696 1052.312, 65.166 1051.227, 60.475 1051.756 C 55.495 1052.317, 52 1050.292, 52 1046.845 C 52 1045.241, 52.849 1045, 58.500 1045 C 65 1045, 65 1045, 65 1041.955 C 65 1038.370, 61.137 1034, 57.969 1034 C 56.801 1034, 54.531 1035.315, 52.923 1036.923 M 73 1035.293 C 67.702 1037.969, 67.230 1048.946, 72.261 1052.471 C 74.718 1054.191, 79.735 1054.464, 82 1053 C 83.087 1052.298, 82.211 1052.026, 78.823 1052.015 C 74.971 1052.003, 73.779 1051.535, 72.073 1049.365 C 69.756 1046.421, 69.426 1042.958, 71.150 1039.684 C 72.762 1036.622, 73.932 1036.035, 78.500 1036 C 81.454 1035.977, 82.108 1035.716, 81 1035 C 78.949 1033.675, 75.988 1033.783, 73 1035.293 M 97.306 1036.413 C 94.904 1038.479, 94.500 1039.572, 94.500 1044 C 94.500 1048.428, 94.904 1049.521, 97.306 1051.587 C 98.871 1052.933, 101.388 1054, 103 1054 C 104.612 1054, 107.129 1052.933, 108.694 1051.587 C 111.096 1049.521, 111.500 1048.428, 111.500 1044 C 111.500 1039.572, 111.096 1038.479, 108.694 1036.413 C 107.129 1035.067, 104.612 1034, 103 1034 C 101.388 1034, 98.871 1035.067, 97.306 1036.413 M 115 1044 C 115 1050, 115.400 1054, 116 1054 C 116.582 1054, 117 1050.695, 117 1046.084 C 117 1038.250, 117.031 1038.154, 120 1036.840 C 121.650 1036.109, 123 1035.172, 123 1034.756 C 123 1033.573, 121.644 1033.861, 119.223 1035.557 C 117.211 1036.966, 117 1036.966, 117 1035.557 C 117 1034.701, 116.550 1034, 116 1034 C 115.400 1034, 115 1038, 115 1044 M 161.315 1035.007 C 158.366 1036.195, 157 1039.043, 157 1044 C 157 1049.276, 158.179 1051.417, 161.942 1052.976 C 168.391 1055.647, 174.020 1051.475, 173.968 1044.061 C 173.913 1036.172, 168.333 1032.179, 161.315 1035.007 M 179.923 1036.923 C 177.631 1039.216, 177 1040.742, 177 1044 C 177 1051.049, 184.616 1056.429, 189.878 1053.096 C 192.006 1051.749, 190.410 1050.288, 187.294 1050.730 C 183.497 1051.269, 181.071 1049.214, 180.365 1044.859 C 179.590 1040.088, 182.706 1036.583, 187.143 1037.234 C 190.379 1037.709, 192.054 1036.282, 189.878 1034.904 C 187.059 1033.118, 182.881 1033.966, 179.923 1036.923 M 53.557 1038.223 C 50.780 1042.186, 51.521 1043, 57.906 1043 C 63.528 1043, 63.786 1042.892, 63.262 1040.750 C 62.406 1037.255, 60.998 1036, 57.934 1036 C 56.153 1036, 54.540 1036.819, 53.557 1038.223 M 98 1038 C 95.557 1040.443, 95.325 1046.592, 97.557 1049.777 C 98.711 1051.426, 100.117 1052, 103 1052 C 107.734 1052, 110 1049.338, 110 1043.777 C 110 1039.123, 107.189 1036, 103 1036 C 101.333 1036, 99.111 1036.889, 98 1038 M 161.655 1038.829 C 159.418 1041.300, 159.517 1047.253, 161.829 1049.345 C 165.922 1053.050, 171 1049.994, 171 1043.826 C 171 1037.874, 165.285 1034.818, 161.655 1038.829 M 739.600 1045.672 C 742.266 1052.757, 742.718 1053.616, 743.415 1052.917 C 744.512 1051.816, 748.805 1039, 748.077 1039 C 747.618 1039, 746.697 1040.463, 746.030 1042.250 C 742.698 1051.182, 742.943 1051.041, 741.127 1045.079 C 740.220 1042.098, 738.927 1039.476, 738.254 1039.251 C 737.490 1038.997, 737.996 1041.408, 739.600 1045.672 M 798.750 1040.060 C 796.035 1041.673, 796.668 1043.872, 800.500 1046.133 C 802.425 1047.268, 804 1048.887, 804 1049.730 C 804 1050.922, 803.224 1051.136, 800.500 1050.694 C 796.770 1050.088, 795.651 1051.437, 799 1052.500 C 805.865 1054.679, 808.039 1047.486, 801.291 1044.921 C 800.031 1044.441, 799 1043.312, 799 1042.411 C 799 1041.157, 799.709 1040.877, 802.027 1041.217 C 803.919 1041.495, 804.921 1041.256, 804.699 1040.581 C 804.210 1039.094, 800.869 1038.801, 798.750 1040.060 M 836 1046 C 836 1050, 836.429 1053, 837 1053 C 837.550 1053, 838 1051.875, 838 1050.500 C 838 1049.125, 838.378 1048, 838.839 1048 C 839.301 1048, 840.192 1049.125, 840.818 1050.500 C 841.445 1051.875, 842.442 1053, 843.035 1053 C 843.652 1053, 843.358 1051.722, 842.347 1050.010 C 840.965 1047.671, 840.844 1046.756, 841.790 1045.810 C 844.156 1043.444, 842.957 1042.692, 840.500 1045 C 838 1047.349, 838 1047.349, 838 1043.174 C 838 1040.878, 837.550 1039, 837 1039 C 836.429 1039, 836 1042, 836 1046 M 892.208 1046.218 C 890.175 1053.189, 889.961 1056.862, 891.883 1051.807 C 894.048 1046.113, 895.836 1039, 895.103 1039 C 894.669 1039, 893.366 1042.248, 892.208 1046.218 M 899 1040 C 899 1040.550, 900.195 1041, 901.655 1041 C 904.164 1041, 904.219 1041.101, 902.655 1042.829 C 900.511 1045.198, 900.568 1045.654, 903.087 1046.312 C 906.216 1047.131, 905.171 1050.488, 901.769 1050.546 C 898.270 1050.605, 897.283 1051.638, 899.925 1052.476 C 905.032 1054.097, 909.117 1049.133, 905.251 1046.002 C 903.500 1044.584, 903.421 1044.144, 904.624 1042.499 C 906.712 1039.643, 906.322 1039, 902.500 1039 C 900.575 1039, 899 1039.450, 899 1040 M 911.073 1041.635 C 908.514 1044.888, 908.432 1048.077, 910.831 1051.040 C 912.231 1052.769, 913.275 1053.148, 915.265 1052.648 C 920.649 1051.297, 919.478 1045, 913.842 1045 C 911.240 1045, 911.044 1044.787, 912 1043 C 912.626 1041.830, 914.094 1041, 915.535 1041 C 916.891 1041, 918 1040.550, 918 1040 C 918 1037.906, 913.095 1039.064, 911.073 1041.635 M 921.405 1041.170 C 919.695 1043.117, 919.679 1043.274, 921.250 1042.701 C 922.751 1042.154, 923 1042.699, 923 1046.531 C 923 1048.989, 922.550 1051, 922 1051 C 921.450 1051, 921 1051.450, 921 1052 C 921 1052.550, 922.440 1053, 924.200 1053 C 926.689 1053, 927.133 1052.733, 926.200 1051.800 C 925.540 1051.140, 925 1047.990, 925 1044.800 C 925 1038.508, 924.333 1037.835, 921.405 1041.170 M 930.051 1040.439 C 929.308 1041.334, 929.039 1043.021, 929.407 1044.487 C 929.907 1046.476, 930.667 1047, 933.054 1047 C 935.760 1047, 935.960 1047.205, 935 1049 C 934.411 1050.100, 933.045 1051, 931.965 1051 C 930.884 1051, 930 1051.450, 930 1052 C 930 1053.561, 933.683 1053.174, 935.427 1051.430 C 936.291 1050.567, 937.292 1048.685, 937.652 1047.249 C 938.988 1041.926, 933.155 1036.699, 930.051 1040.439 M 941.405 1041.170 C 939.695 1043.117, 939.679 1043.274, 941.250 1042.701 C 942.751 1042.154, 943 1042.699, 943 1046.531 C 943 1048.989, 942.550 1051, 942 1051 C 941.450 1051, 941 1051.450, 941 1052 C 941 1052.550, 942.440 1053, 944.200 1053 C 946.689 1053, 947.133 1052.733, 946.200 1051.800 C 945.540 1051.140, 945 1047.990, 945 1044.800 C 945 1038.508, 944.333 1037.835, 941.405 1041.170 M 952.038 1043.750 C 949.072 1048.500, 949.072 1048.500, 952.036 1048.813 C 954.193 1049.041, 955 1049.654, 955 1051.063 C 955 1053.757, 956.790 1053.499, 957.180 1050.750 C 957.721 1046.945, 956.859 1039, 955.905 1039 C 955.409 1039, 953.669 1041.138, 952.038 1043.750 M 962.557 1041.223 C 959.553 1045.511, 961.743 1053, 966 1053 C 968.384 1053, 971 1049.338, 971 1046 C 971 1042.662, 968.384 1039, 966 1039 C 964.962 1039, 963.413 1040, 962.557 1041.223 M 931.170 1043.170 C 931.390 1044.723, 932.167 1045.500, 933.500 1045.500 C 936.478 1045.500, 936.181 1041.596, 933.170 1041.170 C 931.231 1040.895, 930.895 1041.231, 931.170 1043.170 M 963.425 1042.335 C 963.114 1043.146, 963.003 1045.315, 963.180 1047.155 C 963.449 1049.971, 963.895 1050.500, 966 1050.500 C 968.296 1050.500, 968.500 1050.133, 968.500 1046 C 968.500 1042.092, 968.203 1041.458, 966.246 1041.180 C 964.944 1040.995, 963.752 1041.483, 963.425 1042.335 M 771.894 1043.250 C 771.420 1048.839, 773.799 1054.614, 775.726 1052.554 C 776.152 1052.099, 775.938 1051.525, 775.250 1051.280 C 773.729 1050.736, 773.565 1045, 775.071 1045 C 775.661 1045, 775.468 1044.325, 774.643 1043.500 C 772.815 1041.672, 772.034 1041.601, 771.894 1043.250 M 807.894 1043.250 C 807.420 1048.839, 809.799 1054.614, 811.726 1052.554 C 812.152 1052.099, 811.938 1051.525, 811.250 1051.280 C 809.729 1050.736, 809.565 1045, 811.071 1045 C 811.661 1045, 811.468 1044.325, 810.643 1043.500 C 808.815 1041.672, 808.034 1041.601, 807.894 1043.250 M 952.615 1044.465 C 950.540 1047.631, 950.581 1048, 953 1048 C 954.556 1048, 955 1047.333, 955 1045 C 955 1041.360, 954.694 1041.292, 952.615 1044.465 M 751.571 1044.571 C 750.707 1045.436, 750 1046.941, 750 1047.916 C 750 1051.341, 755.883 1054.616, 757.458 1052.068 C 757.775 1051.555, 756.823 1050.993, 755.344 1050.818 C 751.116 1050.318, 751.175 1048, 755.417 1048 C 759.329 1048, 759.497 1047.797, 757.965 1044.934 C 756.714 1042.596, 753.717 1042.426, 751.571 1044.571 M 762.655 1044.829 C 760.471 1047.242, 760.565 1049.296, 762.960 1051.464 C 764.422 1052.787, 765.628 1053.035, 767.710 1052.443 C 770.500 1051.649, 770.500 1051.649, 767 1051.074 C 764.086 1050.596, 763.500 1050.081, 763.500 1048 C 763.500 1046.012, 764.067 1045.435, 766.267 1045.182 C 767.789 1045.007, 768.775 1044.445, 768.458 1043.932 C 767.510 1042.398, 764.423 1042.875, 762.655 1044.829 M 779.655 1044.829 C 777.504 1047.206, 777.560 1049.291, 779.829 1051.345 C 782.206 1053.496, 784.291 1053.440, 786.345 1051.171 C 788.496 1048.794, 788.440 1046.709, 786.171 1044.655 C 783.794 1042.504, 781.709 1042.560, 779.655 1044.829 M 790 1048.125 C 790 1050.806, 790.450 1053, 791 1053 C 791.550 1053, 792 1051.411, 792 1049.469 C 792 1047.252, 792.559 1045.723, 793.500 1045.362 C 795.839 1044.464, 795.264 1043.250, 792.500 1043.250 C 790.175 1043.250, 790 1043.592, 790 1048.125 M 815.655 1044.829 C 813.504 1047.206, 813.560 1049.291, 815.829 1051.345 C 818.206 1053.496, 820.291 1053.440, 822.345 1051.171 C 824.496 1048.794, 824.440 1046.709, 822.171 1044.655 C 819.794 1042.504, 817.709 1042.560, 815.655 1044.829 M 827.655 1044.829 C 825.471 1047.242, 825.565 1049.296, 827.960 1051.464 C 829.422 1052.787, 830.628 1053.035, 832.710 1052.443 C 835.500 1051.649, 835.500 1051.649, 832 1051.074 C 829.086 1050.596, 828.500 1050.081, 828.500 1048 C 828.500 1046.012, 829.067 1045.435, 831.267 1045.182 C 832.789 1045.007, 833.775 1044.445, 833.458 1043.932 C 832.510 1042.398, 829.423 1042.875, 827.655 1044.829 M 852.655 1044.829 C 850.471 1047.242, 850.565 1049.296, 852.960 1051.464 C 854.422 1052.787, 855.628 1053.035, 857.710 1052.443 C 860.500 1051.649, 860.500 1051.649, 857 1051.074 C 854.086 1050.596, 853.500 1050.081, 853.500 1048 C 853.500 1046.012, 854.067 1045.435, 856.267 1045.182 C 857.789 1045.007, 858.775 1044.445, 858.458 1043.932 C 857.510 1042.398, 854.423 1042.875, 852.655 1044.829 M 862.655 1044.829 C 860.504 1047.206, 860.560 1049.291, 862.829 1051.345 C 865.206 1053.496, 867.291 1053.440, 869.345 1051.171 C 871.496 1048.794, 871.440 1046.709, 869.171 1044.655 C 866.794 1042.504, 864.709 1042.560, 862.655 1044.829 M 873 1048.198 C 873 1053.855, 874.739 1054.691, 875.190 1049.250 C 875.439 1046.238, 875.943 1045.437, 877.750 1045.180 C 879.767 1044.894, 880 1045.282, 880 1048.930 C 880 1054.039, 881.771 1054.304, 882.190 1049.258 C 882.407 1046.643, 883.027 1045.417, 884.250 1045.185 C 885.685 1044.913, 886 1045.588, 886 1048.927 C 886 1051.167, 886.450 1053, 887 1053 C 887.550 1053, 888 1051.255, 888 1049.122 C 888 1044.375, 885.785 1042.029, 882.965 1043.790 C 881.935 1044.433, 880.848 1044.563, 880.548 1044.078 C 880.249 1043.594, 878.428 1043.243, 876.502 1043.297 C 873 1043.396, 873 1043.396, 873 1048.198 M 753.250 1044.731 C 751.070 1045.491, 751.901 1047, 754.500 1047 C 755.875 1047, 757 1046.598, 757 1046.107 C 757 1044.956, 754.858 1044.170, 753.250 1044.731 M 780.389 1046.430 C 779.393 1049.025, 780.788 1051.169, 783.246 1050.820 C 784.898 1050.585, 785.500 1049.833, 785.500 1048 C 785.500 1046.167, 784.898 1045.415, 783.246 1045.180 C 781.893 1044.988, 780.750 1045.488, 780.389 1046.430 M 816.389 1046.430 C 815.393 1049.025, 816.788 1051.169, 819.246 1050.820 C 820.898 1050.585, 821.500 1049.833, 821.500 1048 C 821.500 1046.167, 820.898 1045.415, 819.246 1045.180 C 817.893 1044.988, 816.750 1045.488, 816.389 1046.430 M 863.389 1046.430 C 862.393 1049.025, 863.788 1051.169, 866.246 1050.820 C 867.898 1050.585, 868.500 1049.833, 868.500 1048 C 868.500 1046.167, 867.898 1045.415, 866.246 1045.180 C 864.893 1044.988, 863.750 1045.488, 863.389 1046.430 M 911.363 1047.497 C 911.017 1048.398, 911.196 1049.596, 911.761 1050.161 C 913.391 1051.791, 916.500 1050.692, 916.500 1048.486 C 916.500 1045.943, 912.272 1045.128, 911.363 1047.497" stroke="none" fill="#15a9d6" fill-rule="evenodd"/><path d="M 0 500.001 C 0 1000.002, 0 1000.002, 500.250 999.751 C 1000.500 999.500, 1000.500 999.500, 1000.751 499.750 C 1001.002 0, 1001.002 0, 500.501 0 C 0 0, 0 0, 0 500.001 M 0.496 500.500 C 0.496 775.500, 0.610 887.851, 0.750 750.168 C 0.890 612.486, 0.890 387.486, 0.750 250.168 C 0.610 112.851, 0.496 225.500, 0.496 500.500 M 210.492 74.016 C 191.138 75.635, 172.077 81.222, 154.198 90.519 C 139.951 97.928, 129.329 105.759, 117.544 117.544 C 91.262 143.827, 76.900 175.424, 73.928 213.500 C 73.264 222.013, 73.030 324.524, 73.251 510.500 C 73.588 794.500, 73.588 794.500, 75.786 804.500 C 82.799 836.413, 96.308 861.566, 117.946 883 C 143.130 907.945, 173.812 922.282, 209.856 925.947 C 223.214 927.305, 776.175 927.369, 790.098 926.014 C 826.073 922.513, 857.136 907.892, 882.514 882.514 C 907.786 857.242, 922.658 825.749, 925.966 790.500 C 927.334 775.922, 927.366 228.295, 925.999 211.808 C 922.970 175.246, 908.214 143.302, 882.456 117.544 C 865.313 100.401, 846.330 88.680, 823.453 81.113 C 798.375 72.818, 828.122 73.541, 506 73.394 C 348.425 73.322, 215.446 73.602, 210.492 74.016 M 311.500 296.203 C 268.207 298.971, 227.621 325.711, 207.120 364.972 C 201.598 375.549, 199.100 381.860, 196.027 393 C 193.562 401.940, 168.177 602.736, 167.331 620 C 166.857 629.661, 167.111 632.939, 168.921 640.500 C 175.714 668.867, 195.993 690.810, 224.500 700.639 C 231.979 703.218, 233.606 703.400, 249.500 703.443 C 266.002 703.487, 266.752 703.399, 275.096 700.417 C 279.824 698.727, 286.574 695.724, 290.096 693.743 C 304.093 685.872, 306.806 682.798, 359.676 614.891 C 387.273 579.445, 410.689 549.686, 411.713 548.760 C 417.056 543.924, 415.654 544, 500 544 C 584.346 544, 582.944 543.924, 588.287 548.760 C 589.311 549.686, 612.727 579.445, 640.324 614.891 C 693.194 682.798, 695.907 685.872, 709.904 693.743 C 713.426 695.724, 720.176 698.723, 724.904 700.408 C 733.163 703.351, 734.147 703.471, 750 703.485 C 768.458 703.502, 774.256 702.273, 787.627 695.514 C 807.529 685.454, 821.359 669.417, 828.751 647.827 C 834.286 631.662, 834.209 626.848, 827.560 573 C 806.402 401.641, 805.886 397.931, 801.285 384.040 C 797.958 373.997, 789.176 357.148, 782.760 348.500 C 763.049 321.929, 732.666 303.137, 700.290 297.491 C 689.105 295.541, 666.745 295.568, 655.381 297.546 C 644.911 299.368, 628.725 304.608, 619.829 309.056 C 604.217 316.860, 585.896 331.673, 576.018 344.477 C 571.757 350, 571.757 350, 500 350 C 428.243 350, 428.243 350, 423.982 344.477 C 417.664 336.287, 404.117 323.865, 394.752 317.675 C 369.515 300.991, 343.113 294.182, 311.500 296.203 M 309.500 372.945 C 308.400 373.396, 306.600 374.763, 305.500 375.985 C 303.674 378.012, 303.500 379.613, 303.500 394.353 C 303.500 410.500, 303.500 410.500, 286.666 411 C 269.831 411.500, 269.831 411.500, 266.916 414.766 C 264.023 418.006, 264 418.130, 264 430.593 C 264 443.143, 264.003 443.156, 266.923 446.077 C 269.846 449, 269.846 449, 286.423 449 C 303 449, 303 449, 303.055 452.250 C 303.086 454.038, 303.063 460.748, 303.005 467.162 C 302.891 479.744, 304.167 484.949, 307.850 486.920 C 308.998 487.534, 315.462 488, 322.845 488 C 335.822 488, 335.822 488, 338.411 484.923 C 340.966 481.887, 341 481.633, 341 465.423 C 341 449, 341 449, 357.066 449 C 373.233 449, 376.113 448.479, 378.718 445.087 C 380.284 443.047, 380.451 418.712, 378.920 415.850 C 376.853 411.988, 372.340 411.087, 356.152 411.300 C 341 411.500, 341 411.500, 341 395.815 C 341 387.188, 340.553 378.954, 340.006 377.517 C 338.459 373.448, 333.590 371.991, 321.782 372.063 C 316.127 372.098, 310.600 372.495, 309.500 372.945 M 721.734 400.033 C 709.043 403.208, 700.269 413.534, 699.268 426.471 C 698.405 437.621, 704.092 447.965, 714.144 453.534 C 718.903 456.169, 720.447 456.500, 728 456.500 C 735.553 456.500, 737.097 456.169, 741.856 453.534 C 758.260 444.448, 761.958 423.068, 749.520 409.233 C 742.500 401.426, 731.167 397.673, 721.734 400.033 M 34.515 1040.487 C 36.982 1047.441, 39 1053.326, 39 1053.565 C 39 1053.804, 39.631 1054, 40.402 1054 C 41.837 1054, 42.145 1053.322, 46.985 1039.500 C 48.526 1035.100, 50.108 1030.713, 50.500 1029.750 C 50.893 1028.787, 50.799 1028, 50.292 1028 C 49.785 1028, 48.318 1031.037, 47.032 1034.750 C 40.239 1054.361, 41.198 1053.838, 36.482 1040.507 C 34.163 1033.952, 31.763 1028.421, 31.148 1028.216 C 30.533 1028.011, 32.048 1033.533, 34.515 1040.487 M 86.879 1028.500 C 86.070 1029.802, 86.480 1047.856, 87.382 1050.658 C 87.764 1051.844, 88.798 1053.092, 89.681 1053.431 C 92.190 1054.394, 92.366 1053.366, 90.083 1051.083 C 88.400 1049.400, 88 1047.753, 88 1042.500 C 88 1036.667, 88.205 1036, 90 1036 C 91.100 1036, 92 1035.550, 92 1035 C 92 1034.450, 91.129 1034, 90.063 1034 C 88.609 1034, 88.049 1033.190, 87.813 1030.750 C 87.641 1028.963, 87.221 1027.950, 86.879 1028.500 M 128.635 1030.073 C 125.801 1032.302, 125.239 1035.620, 127.250 1038.257 C 127.938 1039.159, 131.113 1040.862, 134.307 1042.042 C 139.559 1043.981, 140.085 1044.439, 139.807 1046.825 C 139.397 1050.343, 135.397 1051.786, 130.027 1050.353 C 126.948 1049.531, 125.988 1049.589, 125.592 1050.620 C 124.905 1052.411, 126.125 1053.002, 131.726 1053.590 C 137.335 1054.179, 140.935 1052.620, 142.760 1048.813 C 144.935 1044.278, 143.011 1041.476, 135.956 1038.904 C 129.471 1036.539, 127.982 1034.932, 130.011 1032.487 C 131.598 1030.575, 135.308 1030.591, 139.050 1032.526 C 141.824 1033.960, 142 1033.936, 142 1032.124 C 142 1030.860, 140.914 1029.817, 138.851 1029.098 C 134.241 1027.491, 131.596 1027.743, 128.635 1030.073 M 147 1039 C 147 1048.667, 147.242 1050.242, 149 1052 C 150.100 1053.100, 151.637 1054, 152.417 1054 C 154.721 1054, 154.833 1051.601, 152.581 1050.483 C 150.864 1049.630, 150.448 1048.362, 150.202 1043.225 C 149.911 1037.143, 149.963 1037, 152.452 1037 C 154.050 1037, 155 1036.441, 155 1035.500 C 155 1034.567, 154.056 1034, 152.500 1034 C 150.389 1034, 150 1033.533, 150 1031 C 150 1029, 149.500 1028, 148.500 1028 C 147.258 1028, 147 1029.889, 147 1039 M 194 1041 C 194 1051.659, 194.260 1054, 195.443 1054 C 196.420 1054, 196.984 1052.654, 197.193 1049.828 C 197.362 1047.533, 198.009 1045.488, 198.631 1045.284 C 199.252 1045.080, 201.052 1046.957, 202.631 1049.455 C 204.666 1052.676, 206.163 1053.997, 207.782 1053.998 C 209.943 1054, 209.851 1053.712, 206.032 1048.543 C 203.814 1045.541, 202 1042.748, 202 1042.335 C 202 1041.922, 203.666 1039.878, 205.703 1037.792 C 208.860 1034.559, 209.110 1034, 207.399 1034 C 206.295 1034, 203.866 1035.575, 202 1037.500 C 200.134 1039.425, 198.246 1041, 197.804 1041 C 197.362 1041, 197 1038.075, 197 1034.500 C 197 1029.389, 196.679 1028, 195.500 1028 C 194.244 1028, 194 1030.111, 194 1041 M 214.079 1031.177 C 214.122 1033.005, 214.391 1033.919, 214.676 1033.208 C 215.030 1032.326, 215.575 1032.232, 216.393 1032.911 C 217.275 1033.643, 217.580 1033.196, 217.546 1031.217 C 217.516 1029.474, 216.884 1028.409, 215.750 1028.190 C 214.355 1027.922, 214.016 1028.528, 214.079 1031.177 M 52.923 1036.923 C 50.631 1039.216, 50 1040.742, 50 1044 C 50 1047.258, 50.631 1048.784, 52.923 1051.077 C 55.806 1053.960, 58.341 1054.551, 62.750 1053.370 C 66.696 1052.312, 65.166 1051.227, 60.475 1051.756 C 55.495 1052.317, 52 1050.292, 52 1046.845 C 52 1045.241, 52.849 1045, 58.500 1045 C 65 1045, 65 1045, 65 1041.955 C 65 1038.370, 61.137 1034, 57.969 1034 C 56.801 1034, 54.531 1035.315, 52.923 1036.923 M 73 1035.293 C 67.702 1037.969, 67.230 1048.946, 72.261 1052.471 C 74.718 1054.191, 79.735 1054.464, 82 1053 C 83.087 1052.298, 82.211 1052.026, 78.823 1052.015 C 74.971 1052.003, 73.779 1051.535, 72.073 1049.365 C 69.756 1046.421, 69.426 1042.958, 71.150 1039.684 C 72.762 1036.622, 73.932 1036.035, 78.500 1036 C 81.454 1035.977, 82.108 1035.716, 81 1035 C 78.949 1033.675, 75.988 1033.783, 73 1035.293 M 97.306 1036.413 C 94.904 1038.479, 94.500 1039.572, 94.500 1044 C 94.500 1048.428, 94.904 1049.521, 97.306 1051.587 C 98.871 1052.933, 101.388 1054, 103 1054 C 104.612 1054, 107.129 1052.933, 108.694 1051.587 C 111.096 1049.521, 111.500 1048.428, 111.500 1044 C 111.500 1039.572, 111.096 1038.479, 108.694 1036.413 C 107.129 1035.067, 104.612 1034, 103 1034 C 101.388 1034, 98.871 1035.067, 97.306 1036.413 M 115 1044 C 115 1050, 115.400 1054, 116 1054 C 116.582 1054, 117 1050.695, 117 1046.084 C 117 1038.250, 117.031 1038.154, 120 1036.840 C 121.650 1036.109, 123 1035.172, 123 1034.756 C 123 1033.573, 121.644 1033.861, 119.223 1035.557 C 117.211 1036.966, 117 1036.966, 117 1035.557 C 117 1034.701, 116.550 1034, 116 1034 C 115.400 1034, 115 1038, 115 1044 M 161.315 1035.007 C 158.366 1036.195, 157 1039.043, 157 1044 C 157 1049.276, 158.179 1051.417, 161.942 1052.976 C 168.391 1055.647, 174.020 1051.475, 173.968 1044.061 C 173.913 1036.172, 168.333 1032.179, 161.315 1035.007 M 179.923 1036.923 C 177.631 1039.216, 177 1040.742, 177 1044 C 177 1051.049, 184.616 1056.429, 189.878 1053.096 C 192.006 1051.749, 190.410 1050.288, 187.294 1050.730 C 183.497 1051.269, 181.071 1049.214, 180.365 1044.859 C 179.590 1040.088, 182.706 1036.583, 187.143 1037.234 C 190.379 1037.709, 192.054 1036.282, 189.878 1034.904 C 187.059 1033.118, 182.881 1033.966, 179.923 1036.923 M 53.557 1038.223 C 50.780 1042.186, 51.521 1043, 57.906 1043 C 63.528 1043, 63.786 1042.892, 63.262 1040.750 C 62.406 1037.255, 60.998 1036, 57.934 1036 C 56.153 1036, 54.540 1036.819, 53.557 1038.223 M 98 1038 C 95.557 1040.443, 95.325 1046.592, 97.557 1049.777 C 98.711 1051.426, 100.117 1052, 103 1052 C 107.734 1052, 110 1049.338, 110 1043.777 C 110 1039.123, 107.189 1036, 103 1036 C 101.333 1036, 99.111 1036.889, 98 1038 M 161.655 1038.829 C 159.418 1041.300, 159.517 1047.253, 161.829 1049.345 C 165.922 1053.050, 171 1049.994, 171 1043.826 C 171 1037.874, 165.285 1034.818, 161.655 1038.829 M 739.600 1045.672 C 742.266 1052.757, 742.718 1053.616, 743.415 1052.917 C 744.512 1051.816, 748.805 1039, 748.077 1039 C 747.618 1039, 746.697 1040.463, 746.030 1042.250 C 742.698 1051.182, 742.943 1051.041, 741.127 1045.079 C 740.220 1042.098, 738.927 1039.476, 738.254 1039.251 C 737.490 1038.997, 737.996 1041.408, 739.600 1045.672 M 798.750 1040.060 C 796.035 1041.673, 796.668 1043.872, 800.500 1046.133 C 802.425 1047.268, 804 1048.887, 804 1049.730 C 804 1050.922, 803.224 1051.136, 800.500 1050.694 C 796.770 1050.088, 795.651 1051.437, 799 1052.500 C 805.865 1054.679, 808.039 1047.486, 801.291 1044.921 C 800.031 1044.441, 799 1043.312, 799 1042.411 C 799 1041.157, 799.709 1040.877, 802.027 1041.217 C 803.919 1041.495, 804.921 1041.256, 804.699 1040.581 C 804.210 1039.094, 800.869 1038.801, 798.750 1040.060 M 836 1046 C 836 1050, 836.429 1053, 837 1053 C 837.550 1053, 838 1051.875, 838 1050.500 C 838 1049.125, 838.378 1048, 838.839 1048 C 839.301 1048, 840.192 1049.125, 840.818 1050.500 C 841.445 1051.875, 842.442 1053, 843.035 1053 C 843.652 1053, 843.358 1051.722, 842.347 1050.010 C 840.965 1047.671, 840.844 1046.756, 841.790 1045.810 C 844.156 1043.444, 842.957 1042.692, 840.500 1045 C 838 1047.349, 838 1047.349, 838 1043.174 C 838 1040.878, 837.550 1039, 837 1039 C 836.429 1039, 836 1042, 836 1046 M 892.208 1046.218 C 890.175 1053.189, 889.961 1056.862, 891.883 1051.807 C 894.048 1046.113, 895.836 1039, 895.103 1039 C 894.669 1039, 893.366 1042.248, 892.208 1046.218 M 899 1040 C 899 1040.550, 900.195 1041, 901.655 1041 C 904.164 1041, 904.219 1041.101, 902.655 1042.829 C 900.511 1045.198, 900.568 1045.654, 903.087 1046.312 C 906.216 1047.131, 905.171 1050.488, 901.769 1050.546 C 898.270 1050.605, 897.283 1051.638, 899.925 1052.476 C 905.032 1054.097, 909.117 1049.133, 905.251 1046.002 C 903.500 1044.584, 903.421 1044.144, 904.624 1042.499 C 906.712 1039.643, 906.322 1039, 902.500 1039 C 900.575 1039, 899 1039.450, 899 1040 M 911.073 1041.635 C 908.514 1044.888, 908.432 1048.077, 910.831 1051.040 C 912.231 1052.769, 913.275 1053.148, 915.265 1052.648 C 920.649 1051.297, 919.478 1045, 913.842 1045 C 911.240 1045, 911.044 1044.787, 912 1043 C 912.626 1041.830, 914.094 1041, 915.535 1041 C 916.891 1041, 918 1040.550, 918 1040 C 918 1037.906, 913.095 1039.064, 911.073 1041.635 M 921.405 1041.170 C 919.695 1043.117, 919.679 1043.274, 921.250 1042.701 C 922.751 1042.154, 923 1042.699, 923 1046.531 C 923 1048.989, 922.550 1051, 922 1051 C 921.450 1051, 921 1051.450, 921 1052 C 921 1052.550, 922.440 1053, 924.200 1053 C 926.689 1053, 927.133 1052.733, 926.200 1051.800 C 925.540 1051.140, 925 1047.990, 925 1044.800 C 925 1038.508, 924.333 1037.835, 921.405 1041.170 M 930.051 1040.439 C 929.308 1041.334, 929.039 1043.021, 929.407 1044.487 C 929.907 1046.476, 930.667 1047, 933.054 1047 C 935.760 1047, 935.960 1047.205, 935 1049 C 934.411 1050.100, 933.045 1051, 931.965 1051 C 930.884 1051, 930 1051.450, 930 1052 C 930 1053.561, 933.683 1053.174, 935.427 1051.430 C 936.291 1050.567, 937.292 1048.685, 937.652 1047.249 C 938.988 1041.926, 933.155 1036.699, 930.051 1040.439 M 941.405 1041.170 C 939.695 1043.117, 939.679 1043.274, 941.250 1042.701 C 942.751 1042.154, 943 1042.699, 943 1046.531 C 943 1048.989, 942.550 1051, 942 1051 C 941.450 1051, 941 1051.450, 941 1052 C 941 1052.550, 942.440 1053, 944.200 1053 C 946.689 1053, 947.133 1052.733, 946.200 1051.800 C 945.540 1051.140, 945 1047.990, 945 1044.800 C 945 1038.508, 944.333 1037.835, 941.405 1041.170 M 952.038 1043.750 C 949.072 1048.500, 949.072 1048.500, 952.036 1048.813 C 954.193 1049.041, 955 1049.654, 955 1051.063 C 955 1053.757, 956.790 1053.499, 957.180 1050.750 C 957.721 1046.945, 956.859 1039, 955.905 1039 C 955.409 1039, 953.669 1041.138, 952.038 1043.750 M 962.557 1041.223 C 959.553 1045.511, 961.743 1053, 966 1053 C 968.384 1053, 971 1049.338, 971 1046 C 971 1042.662, 968.384 1039, 966 1039 C 964.962 1039, 963.413 1040, 962.557 1041.223 M 931.170 1043.170 C 931.390 1044.723, 932.167 1045.500, 933.500 1045.500 C 936.478 1045.500, 936.181 1041.596, 933.170 1041.170 C 931.231 1040.895, 930.895 1041.231, 931.170 1043.170 M 963.425 1042.335 C 963.114 1043.146, 963.003 1045.315, 963.180 1047.155 C 963.449 1049.971, 963.895 1050.500, 966 1050.500 C 968.296 1050.500, 968.500 1050.133, 968.500 1046 C 968.500 1042.092, 968.203 1041.458, 966.246 1041.180 C 964.944 1040.995, 963.752 1041.483, 963.425 1042.335 M 771.894 1043.250 C 771.420 1048.839, 773.799 1054.614, 775.726 1052.554 C 776.152 1052.099, 775.938 1051.525, 775.250 1051.280 C 773.729 1050.736, 773.565 1045, 775.071 1045 C 775.661 1045, 775.468 1044.325, 774.643 1043.500 C 772.815 1041.672, 772.034 1041.601, 771.894 1043.250 M 807.894 1043.250 C 807.420 1048.839, 809.799 1054.614, 811.726 1052.554 C 812.152 1052.099, 811.938 1051.525, 811.250 1051.280 C 809.729 1050.736, 809.565 1045, 811.071 1045 C 811.661 1045, 811.468 1044.325, 810.643 1043.500 C 808.815 1041.672, 808.034 1041.601, 807.894 1043.250 M 952.615 1044.465 C 950.540 1047.631, 950.581 1048, 953 1048 C 954.556 1048, 955 1047.333, 955 1045 C 955 1041.360, 954.694 1041.292, 952.615 1044.465 M 751.571 1044.571 C 750.707 1045.436, 750 1046.941, 750 1047.916 C 750 1051.341, 755.883 1054.616, 757.458 1052.068 C 757.775 1051.555, 756.823 1050.993, 755.344 1050.818 C 751.116 1050.318, 751.175 1048, 755.417 1048 C 759.329 1048, 759.497 1047.797, 757.965 1044.934 C 756.714 1042.596, 753.717 1042.426, 751.571 1044.571 M 762.655 1044.829 C 760.471 1047.242, 760.565 1049.296, 762.960 1051.464 C 764.422 1052.787, 765.628 1053.035, 767.710 1052.443 C 770.500 1051.649, 770.500 1051.649, 767 1051.074 C 764.086 1050.596, 763.500 1050.081, 763.500 1048 C 763.500 1046.012, 764.067 1045.435, 766.267 1045.182 C 767.789 1045.007, 768.775 1044.445, 768.458 1043.932 C 767.510 1042.398, 764.423 1042.875, 762.655 1044.829 M 779.655 1044.829 C 777.504 1047.206, 777.560 1049.291, 779.829 1051.345 C 782.206 1053.496, 784.291 1053.440, 786.345 1051.171 C 788.496 1048.794, 788.440 1046.709, 786.171 1044.655 C 783.794 1042.504, 781.709 1042.560, 779.655 1044.829 M 790 1048.125 C 790 1050.806, 790.450 1053, 791 1053 C 791.550 1053, 792 1051.411, 792 1049.469 C 792 1047.252, 792.559 1045.723, 793.500 1045.362 C 795.839 1044.464, 795.264 1043.250, 792.500 1043.250 C 790.175 1043.250, 790 1043.592, 790 1048.125 M 815.655 1044.829 C 813.504 1047.206, 813.560 1049.291, 815.829 1051.345 C 818.206 1053.496, 820.291 1053.440, 822.345 1051.171 C 824.496 1048.794, 824.440 1046.709, 822.171 1044.655 C 819.794 1042.504, 817.709 1042.560, 815.655 1044.829 M 827.655 1044.829 C 825.471 1047.242, 825.565 1049.296, 827.960 1051.464 C 829.422 1052.787, 830.628 1053.035, 832.710 1052.443 C 835.500 1051.649, 835.500 1051.649, 832 1051.074 C 829.086 1050.596, 828.500 1050.081, 828.500 1048 C 828.500 1046.012, 829.067 1045.435, 831.267 1045.182 C 832.789 1045.007, 833.775 1044.445, 833.458 1043.932 C 832.510 1042.398, 829.423 1042.875, 827.655 1044.829 M 852.655 1044.829 C 850.471 1047.242, 850.565 1049.296, 852.960 1051.464 C 854.422 1052.787, 855.628 1053.035, 857.710 1052.443 C 860.500 1051.649, 860.500 1051.649, 857 1051.074 C 854.086 1050.596, 853.500 1050.081, 853.500 1048 C 853.500 1046.012, 854.067 1045.435, 856.267 1045.182 C 857.789 1045.007, 858.775 1044.445, 858.458 1043.932 C 857.510 1042.398, 854.423 1042.875, 852.655 1044.829 M 862.655 1044.829 C 860.504 1047.206, 860.560 1049.291, 862.829 1051.345 C 865.206 1053.496, 867.291 1053.440, 869.345 1051.171 C 871.496 1048.794, 871.440 1046.709, 869.171 1044.655 C 866.794 1042.504, 864.709 1042.560, 862.655 1044.829 M 873 1048.198 C 873 1053.855, 874.739 1054.691, 875.190 1049.250 C 875.439 1046.238, 875.943 1045.437, 877.750 1045.180 C 879.767 1044.894, 880 1045.282, 880 1048.930 C 880 1054.039, 881.771 1054.304, 882.190 1049.258 C 882.407 1046.643, 883.027 1045.417, 884.250 1045.185 C 885.685 1044.913, 886 1045.588, 886 1048.927 C 886 1051.167, 886.450 1053, 887 1053 C 887.550 1053, 888 1051.255, 888 1049.122 C 888 1044.375, 885.785 1042.029, 882.965 1043.790 C 881.935 1044.433, 880.848 1044.563, 880.548 1044.078 C 880.249 1043.594, 878.428 1043.243, 876.502 1043.297 C 873 1043.396, 873 1043.396, 873 1048.198 M 753.250 1044.731 C 751.070 1045.491, 751.901 1047, 754.500 1047 C 755.875 1047, 757 1046.598, 757 1046.107 C 757 1044.956, 754.858 1044.170, 753.250 1044.731 M 780.389 1046.430 C 779.393 1049.025, 780.788 1051.169, 783.246 1050.820 C 784.898 1050.585, 785.500 1049.833, 785.500 1048 C 785.500 1046.167, 784.898 1045.415, 783.246 1045.180 C 781.893 1044.988, 780.750 1045.488, 780.389 1046.430 M 816.389 1046.430 C 815.393 1049.025, 816.788 1051.169, 819.246 1050.820 C 820.898 1050.585, 821.500 1049.833, 821.500 1048 C 821.500 1046.167, 820.898 1045.415, 819.246 1045.180 C 817.893 1044.988, 816.750 1045.488, 816.389 1046.430 M 863.389 1046.430 C 862.393 1049.025, 863.788 1051.169, 866.246 1050.820 C 867.898 1050.585, 868.500 1049.833, 868.500 1048 C 868.500 1046.167, 867.898 1045.415, 866.246 1045.180 C 864.893 1044.988, 863.750 1045.488, 863.389 1046.430 M 911.363 1047.497 C 911.017 1048.398, 911.196 1049.596, 911.761 1050.161 C 913.391 1051.791, 916.500 1050.692, 916.500 1048.486 C 916.500 1045.943, 912.272 1045.128, 911.363 1047.497" stroke="none" fill="#f4f4f2" fill-rule="evenodd"/></svg>